# xmcd CD database file
#
# Track frame offsets:
#	150
#	38112
#	60165
#	84912
#	125314
#	146797
#	166295
#	193177
#	218743
#
# Disc length: 3265 seconds
#
# Revision: 0
# Processed by: cddbd v1.4PL0 Copyright (c) Steve Scherf et al.
# Submitted via: CDex 1.50beta9
#
DISCID=750cbf09
DTITLE=Phil Woods With Strings - The Thrill Is Gone
DYEAR=2003
DGENRE=Jazz
TTITLE0=And When We're Young
TTITLE1=I Get Along Without You Very Well
TTITLE2=You Go To My Head
TTITLE3=It Never Entered My Mind
TTITLE4=The Thrill Is Gone
TTITLE5=Easy To Love
TTITLE6=The Nearness Of You
TTITLE7=If I Should Lose You
TTITLE8=Solitude
EXTD=YEAR: 2003
EXTT0=
EXTT1=
EXTT2=
EXTT3=
EXTT4=
EXTT5=
EXTT6=
EXTT7=
EXTT8=
PLAYORDER=
